<svg width="44" height="44" viewBox="0 0 24 24" fill="none" xmlns="http://www.w3.org/2000/svg">
<path d="M4 14.5L6 14C6.05909 13.9852 6.08903 13.9777 6.11829 13.9707C7.35491 13.6714 8.64509 13.6714 9.88171 13.9707C9.91097 13.9777 9.9409 13.9852 10 14C10.059 14.0148 10.089 14.0223 10.1183 14.0293C11.3549 14.3286 12.6451 14.3286 13.8817 14.0293C13.911 14.0223 13.941 14.0148 14 14C14.0593 13.9852 14.089 13.9778 14.1183 13.9707C15.3549 13.6714 16.6451 13.6714 17.8817 13.9707C17.911 13.9778 17.9407 13.9852 18 14L20 14.5M13 4H11C7.74936 4 5.01623 6.21572 4.22852 9.21926C4.07165 9.81738 3.99322 10.1164 4.16802 10.4568C4.21596 10.5502 4.3119 10.6745 4.39003 10.7446C4.67493 11 5.04996 11 5.8 11H18.2C18.95 11 19.3251 11 19.61 10.7446C19.6881 10.6745 19.784 10.5502 19.832 10.4568C20.0068 10.1164 19.9283 9.81738 19.7715 9.21926C18.9838 6.21572 16.2506 4 13 4ZM7 20H17C18.6569 20 20 18.6569 20 17H4C4 18.6569 5.34315 20 7 20Z" stroke="#EEECEC" stroke-width="1.5" stroke-linecap="round" stroke-linejoin="round"/>
</svg>
