<svg width="24" height="24" viewBox="0 0 24 24" fill="none" xmlns="http://www.w3.org/2000/svg">
<path d="M14.7665 9.32139C16.6598 9.80063 20.3516 11.5259 19.973 14.593C19.6101 17.5321 18.1347 19.9078 16.1864 19.7774M14.7665 9.32139C15.2398 12.6761 11.4534 16.51 14.2932 18.9062C14.9561 19.4655 15.5932 19.7376 16.1864 19.7774M14.7665 9.32139C14.2932 7.88367 12.684 5.19992 10.0334 5.9667M10.0334 5.9667C9.71787 5.48747 8.70814 4.62486 7.19354 5.00825M10.0334 5.9667C7.84455 6.59993 5.86227 9.11571 5.31489 11.7176M16.1864 19.7774C10.5067 20.6485 7.66686 18.9062 5.77361 15.5516C5.13115 14.4132 5.03373 13.054 5.31489 11.7176M7.19354 5.00825C6.56247 4.36923 5.11102 3.37874 4.35372 4.52894C3.59642 5.67915 4.22919 7.36524 4.64024 8.06451M7.19354 5.00825C6.23354 5.25126 5.15934 6.60324 4.64024 8.06451M5.31489 11.7176C4.15553 11.0089 4.1356 9.48504 4.64024 8.06451" stroke="#EEECEC" stroke-width="1.5" stroke-linecap="round" stroke-linejoin="round"/>
</svg>
