<svg width="24" height="24" viewBox="0 0 24 24" fill="none" xmlns="http://www.w3.org/2000/svg">
<path d="M3 21H5M21 21H19M5 21V7.6C5 6.10011 5 5.35016 5.38197 4.82443C5.50533 4.65464 5.65464 4.50533 5.82443 4.38197C6.35016 4 7.10011 4 8.6 4H11.4C12.8999 4 13.6498 4 14.1756 4.38197C14.3454 4.50533 14.4947 4.65464 14.618 4.82443C15 5.35016 15 6.10011 15 7.6V21M5 21H15M15 21H19M19 21V17M19 13V17M19 17V17C17.8954 17 17 16.1046 17 15V10C17 8.89543 17.8954 8 19 8V8C20.1046 8 21 8.89543 21 10V15C21 16.1046 20.1046 17 19 17V17ZM8 7V8M12 7V8M8 11V12M12 11V12M8 15V16M12 15V16" stroke="#EEECEC" stroke-width="1.5" stroke-linecap="round" stroke-linejoin="round"/>
</svg>
