<svg width="24" height="24" viewBox="0 0 24 24" fill="none" xmlns="http://www.w3.org/2000/svg">
<path d="M12 6L8.99996 4M12 6L15 4M12 6V4M12 6V9M12 18L8.99996 20M12 18L15 20M12 18V20M12 18V15M17.1961 9L17.4282 5.40192M17.1961 9L20.4282 10.5981M17.1961 9L18.9282 8M17.1961 9L14.598 10.5M6.80383 15L3.57178 13.4019M6.80383 15L6.57178 18.5981M6.80383 15L5.07178 16M6.80383 15L9.4019 13.5M6.80383 9L3.57178 10.5981M6.80383 9L6.57178 5.40192M6.80383 9L5.07178 8M6.80383 9L9.4019 10.5M17.1961 15L17.4282 18.5981M17.1961 15L20.4282 13.4019M17.1961 15L18.9282 16M17.1961 15L14.598 13.5M12 9L9.4019 10.5M12 9L14.598 10.5M14.598 10.5V13.5M14.598 13.5L12 15M12 15L9.4019 13.5M9.4019 13.5V10.5" stroke="#EEECEC" stroke-width="1.5" stroke-linecap="round" stroke-linejoin="round"/>
</svg>
