<svg width="24" height="24" viewBox="0 0 24 24" fill="none" xmlns="http://www.w3.org/2000/svg">
<path d="M3.06963 13.125C3.02367 12.7565 3 12.381 3 12C3 7.02944 7.02944 3 12 3C12.7769 3 13.5309 3.09844 14.25 3.28354M3.06963 13.125L3.42254 13.3071C4.54488 13.8862 5.25 15.0434 5.25 16.3064V17.9531M3.06963 13.125C3.299 14.9644 4.08342 16.6314 5.25 17.9531M5.25 17.9531C6.89912 19.8216 9.31194 21 12 21C16.5896 21 20.3768 17.5646 20.9304 13.125M20.9304 13.125C20.9763 12.7565 21 12.381 21 12C21 7.80636 18.1318 4.28264 14.25 3.28354M20.9304 13.125L19.0185 10.1656C18.8475 9.90088 18.5728 9.72047 18.2619 9.66866L18.0214 9.62857C17.0924 9.47373 16.4627 10.5471 17.051 11.2825V11.2825C17.3778 11.691 17.3452 12.2798 16.9753 12.6497L15.7203 13.9047C15.4916 14.1334 15.3013 14.3975 15.1566 14.6868L14.4722 16.0555C14.328 16.344 14.094 16.578 13.8055 16.7222V16.7222C12.9083 17.1708 11.833 16.6233 11.6681 15.6339L11.5452 14.8959C11.4751 14.4758 11.2756 14.0881 10.9745 13.787L10.57 13.3825C10.0613 12.8738 9.32295 12.6693 8.625 12.8438L8.27174 12.9321C7.79296 13.0518 7.28647 12.9115 6.9375 12.5625V12.5625C6.58853 12.2135 6.44824 11.707 6.56794 11.2283L6.67057 10.8177C6.8382 10.1472 7.31763 9.59795 7.95935 9.34126L8.73673 9.03031C9.39545 8.76682 10.1205 8.71761 10.8087 8.88968L11.7759 9.13149C11.9231 9.16826 12.0769 9.16826 12.2241 9.13149L12.5148 9.05879C13.1812 8.8922 13.3333 8.0139 12.7618 7.63288V7.63288C12.6319 7.54624 12.4791 7.5 12.3229 7.5H10.0522C9.85872 7.5 9.67312 7.42312 9.53628 7.28628V7.28628C9.13523 6.88523 9.32503 6.19999 9.87527 6.06243L10.6444 5.87016C10.7966 5.8321 10.9397 5.76403 11.0652 5.66995L14.25 3.28354" stroke="#EEECEC" stroke-width="1.5" stroke-linecap="round" stroke-linejoin="round"/>
</svg>
