<svg width="24" height="24" viewBox="0 0 24 24" fill="none" xmlns="http://www.w3.org/2000/svg">
<path d="M11 15V15.5M13 15V15.5M12 3C7.58172 3 4 6.58172 4 11V13.4C4 14.1225 4.29467 14.7761 4.77038 15.2473C5.46809 15.9384 5.81695 16.2839 5.8897 16.4257C5.93051 16.5052 5.92268 16.4864 5.95046 16.5714C6 16.7229 6 16.9335 6 17.3548V18.5C6 19.3284 6.67157 20 7.5 20C8.32843 20 9 19.3284 9 18.5V19.5C9 20.3284 9.67157 21 10.5 21C11.3284 21 12 20.3284 12 19.5C12 20.3284 12.6716 21 13.5 21C14.3284 21 15 20.3284 15 19.5V18.5C15 19.3284 15.6716 20 16.5 20C17.3284 20 18 19.3284 18 18.5V17.3548C18 16.9335 18 16.7229 18.0495 16.5714C18.0773 16.4864 18.0695 16.5052 18.1103 16.4257C18.1831 16.2839 18.5319 15.9384 19.2296 15.2473C19.7053 14.7761 20 14.1225 20 13.4V11C20 6.58172 16.4183 3 12 3ZM11 11C11 12.1046 10.1046 13 9 13C7.89543 13 7 12.1046 7 11C7 9.89543 7.89543 9 9 9C10.1046 9 11 9.89543 11 11ZM17 11C17 12.1046 16.1046 13 15 13C13.8954 13 13 12.1046 13 11C13 9.89543 13.8954 9 15 9C16.1046 9 17 9.89543 17 11Z" stroke="#EEECEC" stroke-width="1.5" stroke-linecap="round" stroke-linejoin="round"/>
</svg>
