<svg width="24" height="24" viewBox="0 0 24 24" fill="none" xmlns="http://www.w3.org/2000/svg">
<path opacity="0.6" d="M12.0504 6.5C14.5 5 15 3.5 14.5 1C12 2 11.3478 3.53417 12.0504 6.5ZM12.0504 6.5C11.4023 4.687 10 3 8 4M10 13.5359C10.9566 14.0882 11.2843 15.3114 10.732 16.2679C10.1798 17.2245 8.95658 17.5523 8 17C7.04341 16.4477 6.71566 15.2245 7.26795 14.2679C7.82023 13.3114 9.04341 12.9836 10 13.5359ZM16 17C15.0434 17.5523 13.8202 17.2245 13.2679 16.2679C12.7157 15.3114 13.0434 14.0882 14 13.5359C14.9566 12.9836 16.1798 13.3114 16.732 14.2679C17.2843 15.2245 16.9566 16.4477 16 17Z" stroke="#EEECEC" stroke-width="1.5" stroke-linecap="round" stroke-linejoin="round"/>
<path d="M14 10.0718C14 11.1763 13.1046 12.0718 12 12.0718C10.8954 12.0718 10 11.1763 10 10.0718C10 8.96721 10.8954 8.07178 12 8.07178C13.1046 8.07178 14 8.96721 14 10.0718Z" stroke="#EEECEC" stroke-width="1.5" stroke-linecap="round" stroke-linejoin="round"/>
<path d="M8 10.0718C8 11.1763 7.10457 12.0718 6 12.0718C4.89543 12.0718 4 11.1763 4 10.0718C4 8.96721 4.89543 8.07178 6 8.07178C7.10457 8.07178 8 8.96721 8 10.0718Z" stroke="#EEECEC" stroke-width="1.5" stroke-linecap="round" stroke-linejoin="round"/>
<path d="M20 10.0718C20 11.1763 19.1046 12.0718 18 12.0718C16.8954 12.0718 16 11.1763 16 10.0718C16 8.96721 16.8954 8.07178 18 8.07178C19.1046 8.07178 20 8.96721 20 10.0718Z" stroke="#EEECEC" stroke-width="1.5" stroke-linecap="round" stroke-linejoin="round"/>
<path d="M14 20.5C14 21.6046 13.1046 22.5 12 22.5C10.8954 22.5 10 21.6046 10 20.5C10 19.3954 10.8954 18.5 12 18.5C13.1046 18.5 14 19.3954 14 20.5Z" stroke="#EEECEC" stroke-width="1.5" stroke-linecap="round" stroke-linejoin="round"/>
</svg>
