<svg width="24" height="24" viewBox="0 0 24 24" fill="none" xmlns="http://www.w3.org/2000/svg">
<path d="M10 5V5C7.23858 5 5 7.23858 5 10V12M10 5V4C10 2.89543 10.8954 2 12 2V2C13.1046 2 14 2.89543 14 4V5M10 5H14M14 5V5C16.7614 5 19 7.23858 19 10V12M8 21H7C5.89543 21 5 20.1046 5 19V19M8 21V16C8 14.3431 9.34315 13 11 13H13C14.6569 13 16 14.3431 16 16V21M8 21H16M16 21H17C18.1046 21 19 20.1046 19 19V19M19 19V19C20.6569 19 22 17.6569 22 16V14C22 12.8954 21.1046 12 20 12H19M19 19V12M5 19V19C3.34315 19 2 17.6569 2 16V14C2 12.8954 2.89543 12 4 12H5M5 19V12M13 10H11C10.4477 10 10 9.55228 10 9V9C10 8.44772 10.4477 8 11 8H13C13.5523 8 14 8.44772 14 9V9C14 9.55228 13.5523 10 13 10Z" stroke="#EEECEC" stroke-width="1.5" stroke-linecap="round" stroke-linejoin="round"/>
</svg>
