<svg width="24" height="24" viewBox="0 0 24 24" fill="none" xmlns="http://www.w3.org/2000/svg">
<path d="M15 4.12602C16.7252 4.57006 18 6.13616 18 8C18 9.86384 16.7252 11.4299 15 11.874M17 15.3782C17.3894 15.4835 17.7524 15.6069 18.0901 15.7435C19.3683 16.2606 20 17.6212 20 19M16 19C16 17.6212 15.3684 16.2606 14.0902 15.7436C13.0025 15.3036 11.6531 15 10 15C8.34691 15 6.99746 15.3036 5.90981 15.7436C4.63163 16.2606 4 17.6212 4 19M14 8C14 10.2091 12.2091 12 10 12C7.79086 12 6 10.2091 6 8C6 5.79086 7.79086 4 10 4C12.2091 4 14 5.79086 14 8Z" stroke="#EEECEC" stroke-width="1.5" stroke-linecap="round" stroke-linejoin="round"/>
</svg>
