<svg width="24" height="24" viewBox="0 0 24 24" fill="none" xmlns="http://www.w3.org/2000/svg">
<path d="M7.5 20V4M7.5 20L4.5 16M7.5 20L10.5 16M19 17H16.5C16.0341 17 15.8011 17 15.6173 16.9239C15.3723 16.8224 15.1776 16.6277 15.0761 16.3827C15 16.1989 15 15.9659 15 15.5V15.5C15 15.0341 15 14.8011 15.0761 14.6173C15.1776 14.3723 15.3723 14.1776 15.6173 14.0761C15.8011 14 16.0341 14 16.5 14H17.2C17.9499 14 18.3249 14 18.5878 14.191C18.6727 14.2527 18.7473 14.3273 18.809 14.4122C19 14.6751 19 15.0501 19 15.8V17ZM19 17V18.2C19 18.9499 19 19.3249 18.809 19.5878C18.7473 19.6727 18.6727 19.7473 18.5878 19.809C18.3249 20 17.9499 20 17.2 20H16C15.4477 20 15 19.5523 15 19V19M19 8V6C19 4.89543 18.1046 4 17 4V4C15.8954 4 15 4.89543 15 6V8C15 9.10457 15.8954 10 17 10V10C18.1046 10 19 9.10457 19 8Z" stroke="#EEECEC" stroke-width="1.5" stroke-linecap="round" stroke-linejoin="round"/>
</svg>
